<?xml version="1.0" standalone="no"?>
<!DOCTYPE svg PUBLIC "-//W3C//DTD SVG 20010904//EN"
 "http://www.w3.org/TR/2001/REC-SVG-20010904/DTD/svg10.dtd">
<svg version="1.0" xmlns="http://www.w3.org/2000/svg"
 width="500.000000pt" height="500.000000pt" viewBox="0 0 500.000000 500.000000"
 preserveAspectRatio="xMidYMid meet">

<g transform="translate(0.000000,500.000000) scale(0.100000,-0.100000)"
fill="#000000" stroke="none">
<path d="M2150 4549 c-298 -31 -695 -175 -950 -345 -520 -346 -862 -887 -955
-1509 -22 -147 -22 -461 -1 -606 95 -630 439 -1169 967 -1516 119 -77 352
-191 479 -233 231 -76 445 -110 700 -110 488 0 920 143 1308 432 122 90 325
294 419 419 499 666 582 1520 218 2264 -293 601 -840 1027 -1500 1169 -208 44
-463 57 -685 35z m-352 -484 c29 -27 -31 -81 -62 -56 -48 40 -201 -307 -320
-721 -184 -643 -301 -1343 -268 -1608 23 -191 91 -218 226 -90 154 145 284
335 731 1070 369 606 493 798 678 1045 188 251 406 432 434 360 8 -23 -24 -54
-70 -66 -78 -21 -250 -217 -444 -509 -98 -148 -213 -331 -413 -660 -462 -761
-662 -1053 -846 -1238 -98 -98 -170 -142 -232 -142 -47 0 -95 50 -117 121 -23
73 -31 301 -16 454 75 780 438 1953 633 2048 34 17 63 14 86 -8z m547 -1645
c4 -6 -18 -61 -49 -123 -83 -169 -103 -301 -58 -379 41 -70 133 -56 218 34 53
55 82 101 179 273 84 150 116 190 160 201 23 6 32 2 48 -17 17 -21 19 -34 13
-99 -3 -41 -17 -124 -31 -184 -14 -60 -23 -111 -21 -114 2 -2 37 21 78 51 174
128 518 337 554 337 36 0 -1 -30 -142 -115 -172 -104 -325 -208 -441 -299
l-81 -64 -42 -129 c-124 -373 -312 -787 -458 -1008 -78 -118 -217 -262 -283
-293 -131 -63 -209 10 -196 183 24 299 373 796 830 1180 l95 80 35 130 c54
195 66 275 47 305 -16 25 -51 -21 -125 -165 -86 -166 -142 -250 -205 -309 -69
-65 -129 -90 -196 -83 -102 11 -139 62 -137 192 1 115 63 295 135 398 20 27
61 37 73 17z m1438 -1122 c23 -12 16 -34 -9 -30 -75 13 -80 13 -107 -8 -49
-39 -29 -121 33 -135 21 -5 39 -2 54 9 20 13 26 13 36 2 17 -21 -25 -46 -78
-46 -37 0 -50 6 -78 34 -66 66 -38 158 56 190 18 6 68 -3 93 -16z m-1044 -10
c5 -13 21 -50 36 -83 l27 -60 39 83 c24 51 44 82 54 82 21 0 20 -5 -28 -116
-60 -137 -70 -137 -131 1 -25 58 -46 108 -46 110 0 3 9 5 20 5 12 0 24 -9 29
-22z m316 -28 c16 -27 32 -50 35 -50 3 0 18 23 35 50 18 32 36 50 48 50 17 0
17 -4 -9 -47 -15 -27 -33 -57 -41 -68 -7 -11 -13 -39 -13 -62 0 -36 -3 -43
-20 -43 -16 0 -20 7 -20 37 0 25 -13 58 -40 104 -22 37 -40 70 -40 73 0 3 8 6
18 6 11 0 29 -19 47 -50z m325 -19 c30 -39 58 -70 63 -70 4 -1 7 31 7 69 0 63
2 70 20 70 19 0 20 -7 20 -110 0 -101 -2 -110 -19 -110 -11 0 -42 29 -77 73
l-59 72 -3 -72 c-3 -65 -5 -73 -22 -73 -19 0 -20 7 -20 110 0 137 10 141 90
41z m690 54 c0 -12 -13 -15 -60 -15 l-60 0 0 -30 c0 -30 1 -30 55 -30 42 0 55
-3 55 -15 0 -12 -13 -15 -55 -15 l-55 0 0 -35 0 -34 63 -3 c91 -4 77 -22 -20
-26 l-83 -3 0 111 0 110 80 0 c64 0 80 -3 80 -15z"/>
<path d="M2504 1675 c-93 -94 -209 -219 -257 -280 -231 -288 -367 -556 -367
-718 0 -100 34 -130 110 -96 109 49 269 275 420 593 113 237 275 637 267 660
-2 6 -80 -66 -173 -159z"/>
</g>
</svg>
